<svg width="24" height="26" viewBox="0 0 24 26" fill="none" xmlns="http://www.w3.org/2000/svg">
<path d="M12.0029 20.4658C10.8363 20.4658 9.72168 20.6481 8.65918 21.0127C7.59668 21.3773 6.62793 21.9242 5.75293 22.6533V22.9658H18.2529V22.6533C17.3779 21.9242 16.4092 21.3773 15.3467 21.0127C14.2842 20.6481 13.1696 20.4658 12.0029 20.4658ZM3.25293 21.5283C4.37793 20.4242 5.68522 19.5544 7.17481 18.9189C8.66439 18.2835 10.2738 17.9658 12.0029 17.9658C13.7321 17.9658 15.3415 18.2835 16.8311 18.9189C18.3206 19.5544 19.6279 20.4242 20.7529 21.5283V5.46582H3.25293V21.5283ZM12.0029 15.4658C10.7946 15.4658 9.76335 15.0387 8.90918 14.1846C8.05501 13.3304 7.62793 12.2992 7.62793 11.0908C7.62793 9.88249 8.05501 8.85124 8.90918 7.99707C9.76335 7.1429 10.7946 6.71582 12.0029 6.71582C13.2113 6.71582 14.2425 7.1429 15.0967 7.99707C15.9508 8.85124 16.3779 9.88249 16.3779 11.0908C16.3779 12.2992 15.9508 13.3304 15.0967 14.1846C14.2425 15.0387 13.2113 15.4658 12.0029 15.4658ZM12.0029 12.9658C12.5238 12.9658 12.9665 12.7835 13.3311 12.4189C13.6956 12.0544 13.8779 11.6117 13.8779 11.0908C13.8779 10.57 13.6956 10.1273 13.3311 9.7627C12.9665 9.39811 12.5238 9.21582 12.0029 9.21582C11.4821 9.21582 11.0394 9.39811 10.6748 9.7627C10.3102 10.1273 10.1279 10.57 10.1279 11.0908C10.1279 11.6117 10.3102 12.0544 10.6748 12.4189C11.0394 12.7835 11.4821 12.9658 12.0029 12.9658ZM3.25293 25.4658C2.56543 25.4658 1.97689 25.221 1.4873 24.7314C0.997721 24.2419 0.75293 23.6533 0.75293 22.9658V5.46582C0.75293 4.77832 0.997721 4.18978 1.4873 3.7002C1.97689 3.21061 2.56543 2.96582 3.25293 2.96582H4.50293V0.46582H7.00293V2.96582H17.0029V0.46582H19.5029V2.96582H20.7529C21.4404 2.96582 22.029 3.21061 22.5186 3.7002C23.0081 4.18978 23.2529 4.77832 23.2529 5.46582V22.9658C23.2529 23.6533 23.0081 24.2419 22.5186 24.7314C22.029 25.221 21.4404 25.4658 20.7529 25.4658H3.25293Z" fill="white"/>
</svg>
