<svg width="24" height="25" viewBox="0 0 24 25" fill="none" xmlns="http://www.w3.org/2000/svg">
<path d="M11.94 20.1658C12.36 20.1658 12.715 20.0208 13.005 19.7308C13.295 19.4408 13.44 19.0858 13.44 18.6658C13.44 18.2458 13.295 17.8908 13.005 17.6008C12.715 17.3108 12.36 17.1658 11.94 17.1658C11.52 17.1658 11.165 17.3108 10.875 17.6008C10.585 17.8908 10.44 18.2458 10.44 18.6658C10.44 19.0858 10.585 19.4408 10.875 19.7308C11.165 20.0208 11.52 20.1658 11.94 20.1658ZM12 24.9658C10.34 24.9658 8.78 24.6508 7.32 24.0208C5.86 23.3908 4.59 22.5358 3.51 21.4558C2.43 20.3758 1.575 19.1058 0.945 17.6458C0.315 16.1858 0 14.6258 0 12.9658C0 11.3058 0.315 9.74582 0.945 8.28582C1.575 6.82582 2.43 5.55582 3.51 4.47582C4.59 3.39582 5.86 2.54082 7.32 1.91082C8.78 1.28082 10.34 0.96582 12 0.96582C13.66 0.96582 15.22 1.28082 16.68 1.91082C18.14 2.54082 19.41 3.39582 20.49 4.47582C21.57 5.55582 22.425 6.82582 23.055 8.28582C23.685 9.74582 24 11.3058 24 12.9658C24 14.6258 23.685 16.1858 23.055 17.6458C22.425 19.1058 21.57 20.3758 20.49 21.4558C19.41 22.5358 18.14 23.3908 16.68 24.0208C15.22 24.6508 13.66 24.9658 12 24.9658ZM12 22.5658C14.68 22.5658 16.95 21.6358 18.81 19.7758C20.67 17.9158 21.6 15.6458 21.6 12.9658C21.6 10.2858 20.67 8.01582 18.81 6.15582C16.95 4.29582 14.68 3.36582 12 3.36582C9.32 3.36582 7.05 4.29582 5.19 6.15582C3.33 8.01582 2.4 10.2858 2.4 12.9658C2.4 15.6458 3.33 17.9158 5.19 19.7758C7.05 21.6358 9.32 22.5658 12 22.5658ZM12.12 7.80582C12.62 7.80582 13.055 7.96582 13.425 8.28582C13.795 8.60582 13.98 9.00582 13.98 9.48582C13.98 9.92582 13.845 10.3158 13.575 10.6558C13.305 10.9958 13 11.3158 12.66 11.6158C12.2 12.0158 11.795 12.4558 11.445 12.9358C11.095 13.4158 10.92 13.9558 10.92 14.5558C10.92 14.8358 11.025 15.0708 11.235 15.2608C11.445 15.4508 11.69 15.5458 11.97 15.5458C12.27 15.5458 12.525 15.4458 12.735 15.2458C12.945 15.0458 13.08 14.7958 13.14 14.4958C13.22 14.0758 13.4 13.7008 13.68 13.3708C13.96 13.0408 14.26 12.7258 14.58 12.4258C15.04 11.9858 15.435 11.5058 15.765 10.9858C16.095 10.4658 16.26 9.88582 16.26 9.24582C16.26 8.22582 15.845 7.39082 15.015 6.74082C14.185 6.09082 13.22 5.76582 12.12 5.76582C11.36 5.76582 10.635 5.92582 9.945 6.24582C9.255 6.56582 8.73 7.05582 8.37 7.71582C8.23 7.95582 8.185 8.21082 8.235 8.48082C8.285 8.75082 8.42 8.95582 8.64 9.09582C8.92 9.25582 9.21 9.30582 9.51 9.24582C9.81 9.18582 10.06 9.01582 10.26 8.73582C10.48 8.43582 10.755 8.20582 11.085 8.04582C11.415 7.88582 11.76 7.80582 12.12 7.80582Z" fill="#A8A8A8"/>
</svg>
